<svg width="300" height="301" viewBox="0 0 300 301" fill="none" xmlns="http://www.w3.org/2000/svg">
<g opacity="0.6">
<path d="M70.9315 190.045C72.205 190.045 72.205 187.83 70.9315 187.83C69.6277 187.864 69.6277 190.045 70.9315 190.045Z" fill="#C6C6C6"/>
<path d="M44.4903 190.715C45.7638 190.715 45.7638 188.5 44.4903 188.5C43.2168 188.5 43.2168 190.715 44.4903 190.715Z" fill="#C6C6C6"/>
<path d="M23.4166 191.823C24.6901 191.823 24.6901 189.608 23.4166 189.608C22.143 189.608 22.143 191.823 23.4166 191.823Z" fill="#C6C6C6"/>
<path d="M11.5001 191.589C12.7736 191.589 12.7736 189.374 11.5001 189.374C10.2265 189.374 10.2265 191.589 11.5001 191.589Z" fill="#C6C6C6"/>
<path d="M5.13239 190.045C6.40592 190.045 6.40592 187.83 5.13239 187.83C3.85886 187.864 3.85886 190.045 5.13239 190.045Z" fill="#C6C6C6"/>
<path d="M1.76765 185.447C3.04117 185.447 3.04117 183.232 1.76765 183.232C0.494118 183.232 0.494118 185.447 1.76765 185.447Z" fill="#C6C6C6"/>
<path d="M0.977887 178.634C2.25141 178.634 2.25141 176.419 0.977887 176.419C-0.325962 176.419 -0.325962 178.634 0.977887 178.634Z" fill="#C6C6C6"/>
<path d="M2.94831 173.768C4.22184 173.768 4.22184 171.553 2.94831 171.553C1.67478 171.586 1.67478 173.768 2.94831 173.768Z" fill="#C6C6C6"/>
<path d="M6.34605 170.042C7.61958 170.042 7.61958 167.827 6.34605 167.827C5.0422 167.827 5.0422 170.042 6.34605 170.042Z" fill="#C6C6C6"/>
<path d="M5.34479 161.687C6.61832 161.687 6.61832 159.472 5.34479 159.472C4.07127 159.472 4.07127 161.687 5.34479 161.687Z" fill="#C6C6C6"/>
<path d="M6.74009 157.289C8.01362 157.289 8.01362 155.074 6.74009 155.074C5.43624 155.074 5.43624 157.289 6.74009 157.289Z" fill="#C6C6C6"/>
<path d="M9.71052 152.222C10.984 152.222 10.984 150.007 9.71052 150.007C8.43699 150.007 8.43699 152.222 9.71052 152.222Z" fill="#C6C6C6"/>
<path d="M7.13337 174.44C8.40689 174.44 8.40689 172.225 7.13337 172.225C5.85984 172.225 5.85984 174.44 7.13337 174.44Z" fill="#C6C6C6"/>
<path d="M12.2882 177.728C13.5617 177.728 13.5617 175.513 12.2882 175.513C11.0146 175.547 11.0146 177.728 12.2882 177.728Z" fill="#C6C6C6"/>
<path d="M26.6002 178.836C27.8737 178.836 27.8737 176.621 26.6002 176.621C25.3266 176.621 25.3266 178.836 26.6002 178.836Z" fill="#C6C6C6"/>
<path d="M50.8578 179.708C52.1313 179.708 52.1313 177.493 50.8578 177.493C49.5539 177.493 49.5539 179.708 50.8578 179.708Z" fill="#C6C6C6"/>
<path d="M74.691 181.252C75.9645 181.252 75.9645 179.037 74.691 179.037C73.4175 179.037 73.4175 181.252 74.691 181.252Z" fill="#C6C6C6"/>
<path d="M125.875 187.427C127.148 187.427 127.148 185.212 125.875 185.212C124.601 185.212 124.601 187.427 125.875 187.427Z" fill="#C6C6C6"/>
<path d="M151.193 193.803C152.467 193.803 152.467 191.588 151.193 191.588C149.92 191.588 149.92 193.803 151.193 193.803Z" fill="#C6C6C6"/>
<path d="M184.184 201.925C185.458 201.925 185.458 199.71 184.184 199.71C182.911 199.71 182.911 201.925 184.184 201.925Z" fill="#C6C6C6"/>
<path d="M209.018 207.866C210.291 207.866 210.291 205.651 209.018 205.651C207.744 205.651 207.744 207.866 209.018 207.866Z" fill="#C6C6C6"/>
<path d="M240.613 211.624C241.887 211.624 241.887 209.409 240.613 209.409C239.34 209.409 239.34 211.624 240.613 211.624Z" fill="#C6C6C6"/>
<path d="M261.9 211.389C263.174 211.389 263.174 209.174 261.9 209.174C260.596 209.174 260.596 211.389 261.9 211.389Z" fill="#C6C6C6"/>
<path d="M282.943 209.176C284.217 209.176 284.217 206.961 282.943 206.961C281.67 206.994 281.67 209.176 282.943 209.176Z" fill="#C6C6C6"/>
<path d="M292.89 207.194C294.163 207.194 294.163 204.979 292.89 204.979C291.616 205.013 291.616 207.194 292.89 207.194Z" fill="#C6C6C6"/>
<path d="M298.257 203.469C299.53 203.469 299.53 201.254 298.257 201.254C296.983 201.254 296.953 203.469 298.257 203.469Z" fill="#C6C6C6"/>
<path d="M299.045 193.569C300.319 193.569 300.319 191.354 299.045 191.354C297.771 191.354 297.771 193.569 299.045 193.569Z" fill="#C6C6C6"/>
<path d="M296.861 181.487C298.134 181.487 298.134 179.272 296.861 179.272C295.587 179.272 295.587 181.487 296.861 181.487Z" fill="#C6C6C6"/>
<path d="M290.706 166.318C291.979 166.318 291.979 164.103 290.706 164.103C289.402 164.103 289.402 166.318 290.706 166.318Z" fill="#C6C6C6"/>
<path d="M278.396 151.551C279.669 151.551 279.669 149.336 278.396 149.336C277.092 149.37 277.092 151.551 278.396 151.551Z" fill="#C6C6C6"/>
<path d="M274.392 126.28C275.665 126.28 275.665 124.065 274.392 124.065C273.118 124.065 273.118 126.28 274.392 126.28Z" fill="#C6C6C6"/>
<path d="M267.266 106.714C268.54 106.714 268.54 104.499 267.266 104.499C265.962 104.499 265.962 106.714 267.266 106.714Z" fill="#C6C6C6"/>
<path d="M251.954 77.651C253.228 77.651 253.228 75.436 251.954 75.436C250.681 75.4696 250.65 77.651 251.954 77.651Z" fill="#C6C6C6"/>
<path d="M238.249 56.7755C239.522 56.7755 239.522 54.5605 238.249 54.5605C236.945 54.5605 236.945 56.7755 238.249 56.7755Z" fill="#C6C6C6"/>
<path d="M211.808 32.3434C213.082 32.3434 213.082 30.1284 211.808 30.1284C210.535 30.162 210.535 32.3434 211.808 32.3434Z" fill="#C6C6C6"/>
<path d="M200.286 20.9333C201.56 20.9333 201.56 18.7183 200.286 18.7183C199.013 18.7183 199.013 20.9333 200.286 20.9333Z" fill="#C6C6C6"/>
<path d="M184.791 12.3417C186.065 12.3417 186.065 10.1267 184.791 10.1267C183.488 10.1267 183.488 12.3417 184.791 12.3417Z" fill="#C6C6C6"/>
<path d="M163.323 6.40079C164.597 6.40079 164.597 4.18579 163.323 4.18579C162.05 4.18579 162.05 6.40079 163.323 6.40079Z" fill="#C6C6C6"/>
<path d="M141.066 3.11222C142.34 3.11222 142.34 0.897217 141.066 0.897217C139.793 0.897217 139.793 3.11222 141.066 3.11222Z" fill="#C6C6C6"/>
<path d="M109.471 3.31388C110.744 3.31388 110.744 1.09888 109.471 1.09888C108.197 1.13244 108.197 3.31388 109.471 3.31388Z" fill="#C6C6C6"/>
<path d="M82.0589 9.05289C83.3325 9.05289 83.3325 6.83789 82.0589 6.83789C80.7551 6.83789 80.7551 9.05289 82.0589 9.05289Z" fill="#C6C6C6"/>
<path d="M53.4346 22.007C54.7082 22.007 54.7082 19.792 53.4346 19.792C52.1611 19.8256 52.1611 22.007 53.4346 22.007Z" fill="#C6C6C6"/>
<path d="M36.3341 35.8673C37.6076 35.8673 37.6076 33.6523 36.3341 33.6523C35.0605 33.6523 35.0605 35.8673 36.3341 35.8673Z" fill="#C6C6C6"/>
<path d="M21.627 56.5412C22.9005 56.5412 22.9005 54.3262 21.627 54.3262C20.3535 54.3597 20.3535 56.5412 21.627 56.5412Z" fill="#C6C6C6"/>
<path d="M13.2891 75.4689C14.5627 75.4689 14.5627 73.2539 13.2891 73.2539C12.0156 73.2539 12.0156 75.4689 13.2891 75.4689Z" fill="#C6C6C6"/>
<path d="M8.711 96.8131C9.98453 96.8131 9.98453 94.5981 8.711 94.5981C7.43748 94.5981 7.43748 96.8131 8.711 96.8131Z" fill="#C6C6C6"/>
<path d="M7.92292 126.482C9.19645 126.482 9.19645 124.267 7.92292 124.267C6.64939 124.301 6.64939 126.482 7.92292 126.482Z" fill="#C6C6C6"/>
<path d="M68.1414 221.055C69.4149 221.055 69.4149 218.84 68.1414 218.84C66.8678 218.873 66.8375 221.055 68.1414 221.055Z" fill="#C6C6C6"/>
<path d="M69.9304 233.171C71.2039 233.171 71.2039 230.956 69.9304 230.956C68.6569 230.956 68.6266 233.171 69.9304 233.171Z" fill="#C6C6C6"/>
<path d="M79.4522 250.085C80.7257 250.085 80.7257 247.87 79.4522 247.87C78.1787 247.903 78.1787 250.085 79.4522 250.085Z" fill="#C6C6C6"/>
<path d="M84.0308 265.925C85.3044 265.925 85.3044 263.71 84.0308 263.71C82.7573 263.71 82.7573 265.925 84.0308 265.925Z" fill="#C6C6C6"/>
<path d="M88.2142 278.913C89.4877 278.913 89.4877 276.698 88.2142 276.698C86.9104 276.698 86.9104 278.913 88.2142 278.913Z" fill="#C6C6C6"/>
<path d="M98.5555 288.378C99.8291 288.378 99.8291 286.163 98.5555 286.163C97.2517 286.163 97.2517 288.378 98.5555 288.378Z" fill="#C6C6C6"/>
<path d="M110.653 293.882C111.926 293.882 111.926 291.667 110.653 291.667C109.379 291.667 109.379 293.882 110.653 293.882Z" fill="#C6C6C6"/>
<path d="M128.149 290.996C129.423 290.996 129.423 288.781 128.149 288.781C126.875 288.815 126.875 290.996 128.149 290.996Z" fill="#C6C6C6"/>
<path d="M150.405 282.203C151.679 282.203 151.679 279.988 150.405 279.988C149.132 279.988 149.132 282.203 150.405 282.203Z" fill="#C6C6C6"/>
<path d="M171.267 267.705C172.541 267.705 172.541 265.49 171.267 265.49C169.994 265.49 169.994 267.705 171.267 267.705Z" fill="#C6C6C6"/>
<path d="M187.58 245.05C188.854 245.05 188.854 242.835 187.58 242.835C186.277 242.835 186.277 245.05 187.58 245.05Z" fill="#C6C6C6"/>
<path d="M194.919 228.338C196.193 228.338 196.193 226.123 194.919 226.123C193.645 226.123 193.645 228.338 194.919 228.338Z" fill="#C6C6C6"/>
<path d="M201.073 215.349C202.346 215.349 202.346 213.134 201.073 213.134C199.799 213.134 199.799 215.349 201.073 215.349Z" fill="#C6C6C6"/>
<path d="M228.697 221.961C229.971 221.961 229.971 219.746 228.697 219.746C227.424 219.746 227.424 221.961 228.697 221.961Z" fill="#C6C6C6"/>
<path d="M218.569 239.312C219.843 239.312 219.843 237.097 218.569 237.097C217.296 237.131 217.265 239.312 218.569 239.312Z" fill="#C6C6C6"/>
<path d="M205.045 261.965C206.319 261.965 206.319 259.75 205.045 259.75C203.772 259.784 203.772 261.965 205.045 261.965Z" fill="#C6C6C6"/>
<path d="M190.734 278.478C192.007 278.478 192.007 276.263 190.734 276.263C189.46 276.263 189.46 278.478 190.734 278.478Z" fill="#C6C6C6"/>
<path d="M173.844 291.902C175.117 291.902 175.117 289.687 173.844 289.687C172.57 289.687 172.57 291.902 173.844 291.902Z" fill="#C6C6C6"/>
<path d="M152.801 300.46C154.074 300.46 154.074 298.245 152.801 298.245C151.497 298.245 151.497 300.46 152.801 300.46Z" fill="#C6C6C6"/>
<path d="M134.699 300.896C135.972 300.896 135.972 298.681 134.699 298.681C133.425 298.681 133.425 300.896 134.699 300.896Z" fill="#C6C6C6"/>
<path d="M118.417 298.48C119.69 298.48 119.69 296.265 118.417 296.265C117.143 296.265 117.143 298.48 118.417 298.48Z" fill="#C6C6C6"/>
<path d="M98.9496 296.062C100.223 296.062 100.223 293.847 98.9496 293.847C97.6457 293.847 97.6457 296.062 98.9496 296.062Z" fill="#C6C6C6"/>
<path d="M82.2413 292.103C83.5148 292.103 83.5148 289.888 82.2413 289.888C80.9678 289.888 80.9678 292.103 82.2413 292.103Z" fill="#C6C6C6"/>
<path d="M70.325 284.854C70.325 284.787 70.325 284.72 70.325 284.619C70.325 283.21 68.3237 283.21 68.3237 284.619C68.3237 284.686 68.3237 284.753 68.3237 284.854C68.3237 286.264 70.325 286.264 70.325 284.854Z" fill="#C6C6C6"/>
<path d="M58.1959 273.411C59.4694 273.411 59.4694 271.196 58.1959 271.196C56.9223 271.196 56.9223 273.411 58.1959 273.411Z" fill="#C6C6C6"/>
<path d="M50.4637 259.113C51.7373 259.113 51.7373 256.898 50.4637 256.898C49.1599 256.898 49.1599 259.113 50.4637 259.113Z" fill="#C6C6C6"/>
<path d="M44.0959 249.448C45.3695 249.448 45.3695 247.233 44.0959 247.233C42.8224 247.233 42.7921 249.448 44.0959 249.448Z" fill="#C6C6C6"/>
<path d="M37.1532 241.963C38.4267 241.963 38.4267 239.748 37.1532 239.748C35.8493 239.748 35.8493 241.963 37.1532 241.963Z" fill="#C6C6C6"/>
<path d="M38.3347 228.103C39.6082 228.103 39.6082 225.888 38.3347 225.888C37.0612 225.888 37.0309 228.103 38.3347 228.103Z" fill="#C6C6C6"/>
<path d="M38.5176 214.478C39.7912 214.478 39.7912 212.263 38.5176 212.263C37.2441 212.263 37.2441 214.478 38.5176 214.478Z" fill="#C6C6C6"/>
<path d="M39.7298 202.797C41.0034 202.797 41.0034 200.582 39.7298 200.582C38.426 200.615 38.426 202.797 39.7298 202.797Z" fill="#C6C6C6"/>
<path d="M16.3514 82.9865C17.6249 82.9865 17.6249 80.7715 16.3514 80.7715C15.0476 80.7715 15.0476 82.9865 16.3514 82.9865Z" fill="#C6C6C6"/>
<path d="M22.6583 63.2194C23.9318 63.2194 23.9318 61.0044 22.6583 61.0044C21.3847 61.0044 21.3847 63.2194 22.6583 63.2194Z" fill="#C6C6C6"/>
<path d="M34.8778 45.734C36.1513 45.734 36.1513 43.519 34.8778 43.519C33.5739 43.519 33.5739 45.734 34.8778 45.734Z" fill="#C6C6C6"/>
<path d="M57.014 31.2033C58.2875 31.2033 58.2875 28.9883 57.014 28.9883C55.7102 29.0218 55.7102 31.2033 57.014 31.2033Z" fill="#C6C6C6"/>
<path d="M84.1224 22.7121C85.3959 22.7121 85.3959 20.4971 84.1224 20.4971C82.8186 20.4971 82.8186 22.7121 84.1224 22.7121Z" fill="#C6C6C6"/>
<path d="M115.959 21.4694C117.233 21.4694 117.233 19.2544 115.959 19.2544C114.686 19.2544 114.686 21.4694 115.959 21.4694Z" fill="#C6C6C6"/>
<path d="M137.427 27.7126C138.7 27.7126 138.7 25.4976 137.427 25.4976C136.153 25.4976 136.153 27.7126 137.427 27.7126Z" fill="#C6C6C6"/>
<path d="M153.468 38.485C154.742 38.485 154.742 36.27 153.468 36.27C152.195 36.27 152.195 38.485 153.468 38.485Z" fill="#C6C6C6"/>
<path d="M166.81 60.4674C168.084 60.4674 168.084 58.2524 166.81 58.2524C165.507 58.2524 165.507 60.4674 166.81 60.4674Z" fill="#C6C6C6"/>
<path d="M171.327 86.9796C172.601 86.9796 172.601 84.7646 171.327 84.7646C170.023 84.7646 170.023 86.9796 171.327 86.9796Z" fill="#C6C6C6"/>
<path d="M169.054 112.721C170.327 112.721 170.327 110.506 169.054 110.506C167.78 110.506 167.78 112.721 169.054 112.721Z" fill="#C6C6C6"/>
<path d="M157.318 133.496C158.592 133.496 158.592 131.281 157.318 131.281C156.014 131.281 156.014 133.496 157.318 133.496Z" fill="#C6C6C6"/>
<path d="M143.068 149.973C144.341 149.973 144.341 147.758 143.068 147.758C141.794 147.791 141.794 149.973 143.068 149.973Z" fill="#C6C6C6"/>
<path d="M131.999 157.491C133.273 157.491 133.273 155.276 131.999 155.276C130.726 155.276 130.726 157.491 131.999 157.491Z" fill="#C6C6C6"/>
<path d="M131.999 157.491C133.273 157.491 133.273 155.276 131.999 155.276C130.726 155.276 130.726 157.491 131.999 157.491Z" fill="#C6C6C6"/>
<path d="M119.811 160.982C121.084 160.982 121.084 158.767 119.811 158.767C118.537 158.767 118.507 160.982 119.811 160.982Z" fill="#C6C6C6"/>
<path d="M99.7069 160.747C100.98 160.747 100.98 158.532 99.7069 158.532C98.403 158.532 98.403 160.747 99.7069 160.747Z" fill="#C6C6C6"/>
<path d="M69.6578 157.726C70.9313 157.726 70.9313 155.511 69.6578 155.511C68.3843 155.511 68.3843 157.726 69.6578 157.726Z" fill="#C6C6C6"/>
<path d="M46.1583 154.235C47.4318 154.235 47.4318 152.02 46.1583 152.02C44.8847 152.02 44.8847 154.235 46.1583 154.235Z" fill="#C6C6C6"/>
<path d="M33.7261 152.222C34.9997 152.222 34.9997 150.007 33.7261 150.007C32.4526 150.041 32.4526 152.222 33.7261 152.222Z" fill="#C6C6C6"/>
<path d="M25.1451 146.483C26.4186 146.483 26.4186 144.268 25.1451 144.268C23.8716 144.268 23.8716 146.483 25.1451 146.483Z" fill="#C6C6C6"/>
<path d="M17.4727 133.226C18.7463 133.226 18.7463 131.011 17.4727 131.011C16.1992 131.011 16.1992 133.226 17.4727 133.226Z" fill="#C6C6C6"/>
<path d="M13.4099 116.245C14.6834 116.245 14.6834 114.03 13.4099 114.03C12.1364 114.03 12.1061 116.245 13.4099 116.245Z" fill="#C6C6C6"/>
<path d="M12.9551 100.236C14.2287 100.236 14.2287 98.021 12.9551 98.021C11.6816 98.021 11.6816 100.236 12.9551 100.236Z" fill="#C6C6C6"/>
<path d="M28.329 60.7355C29.6025 60.7355 29.6025 58.5205 28.329 58.5205C27.0251 58.5205 27.0251 60.7355 28.329 60.7355Z" fill="#C6C6C6"/>
<path d="M50.2208 41.7067C51.4943 41.7067 51.4943 39.4917 50.2208 39.4917C48.9472 39.5253 48.9472 41.7067 50.2208 41.7067Z" fill="#C6C6C6"/>
<path d="M71.9019 32.9806C73.1754 32.9806 73.1754 30.7656 71.9019 30.7656C70.6284 30.7656 70.6284 32.9806 71.9019 32.9806Z" fill="#C6C6C6"/>
<path d="M98.5848 30.7331C99.8583 30.7331 99.8583 28.5181 98.5848 28.5181C97.281 28.5181 97.281 30.7331 98.5848 30.7331Z" fill="#C6C6C6"/>
<path d="M120.265 35.2292C121.539 35.2292 121.539 33.0142 120.265 33.0142C118.961 33.0142 118.961 35.2292 120.265 35.2292Z" fill="#C6C6C6"/>
<path d="M142.612 48.7204C143.886 48.7204 143.886 46.5054 142.612 46.5054C141.339 46.5054 141.339 48.7204 142.612 48.7204Z" fill="#C6C6C6"/>
<path d="M155.712 65.9709C156.986 65.9709 156.986 63.7559 155.712 63.7559C154.438 63.7559 154.438 65.9709 155.712 65.9709Z" fill="#C6C6C6"/>
<path d="M162.959 86.7116C164.232 86.7116 164.232 84.4966 162.959 84.4966C161.685 84.5301 161.655 86.7116 162.959 86.7116Z" fill="#C6C6C6"/>
<path d="M162.959 86.7116C164.232 86.7116 164.232 84.4966 162.959 84.4966C161.685 84.5301 161.655 86.7116 162.959 86.7116Z" fill="#C6C6C6"/>
<path d="M162.959 114.467C164.232 114.467 164.232 112.252 162.959 112.252C161.685 112.286 161.655 114.467 162.959 114.467Z" fill="#C6C6C6"/>
<path d="M101.071 183.501C102.345 183.501 102.345 181.286 101.071 181.286C99.7673 181.286 99.7673 183.501 101.071 183.501Z" fill="#C6C6C6"/>
<path d="M136.306 179.474C137.579 179.474 137.579 177.259 136.306 177.259C135.002 177.293 135.002 179.474 136.306 179.474Z" fill="#C6C6C6"/>
<path d="M162.049 173.5C163.322 173.5 163.322 171.285 162.049 171.285C160.775 171.285 160.775 173.5 162.049 173.5Z" fill="#C6C6C6"/>
<path d="M181.486 167.492C182.759 167.492 182.759 165.277 181.486 165.277C180.182 165.277 180.182 167.492 181.486 167.492Z" fill="#C6C6C6"/>
<path d="M270.482 153.497C271.755 153.497 271.755 151.282 270.482 151.282C269.208 151.282 269.208 153.497 270.482 153.497Z" fill="#C6C6C6"/>
<path d="M180.576 144.973C181.85 144.973 181.85 142.758 180.576 142.758C179.303 142.791 179.303 144.973 180.576 144.973Z" fill="#C6C6C6"/>
<path d="M181.031 119.466C182.304 119.466 182.304 117.251 181.031 117.251C179.757 117.285 179.757 119.466 181.031 119.466Z" fill="#C6C6C6"/>
<path d="M182.607 96.2433C183.881 96.2433 183.881 94.0283 182.607 94.0283C181.333 94.0283 181.333 96.2433 182.607 96.2433Z" fill="#C6C6C6"/>
<path d="M186.459 81.9801C187.732 81.9801 187.732 79.7651 186.459 79.7651C185.155 79.7651 185.155 81.9801 186.459 81.9801Z" fill="#C6C6C6"/>
<path d="M191.645 70.9713C192.918 70.9713 192.918 68.7563 191.645 68.7563C190.371 68.7563 190.371 70.9713 191.645 70.9713Z" fill="#C6C6C6"/>
<path d="M199.77 64.7296C201.044 64.7296 201.044 62.5146 199.77 62.5146C198.497 62.5146 198.497 64.7296 199.77 64.7296Z" fill="#C6C6C6"/>
<path d="M213.567 62.985C214.841 62.985 214.841 60.77 213.567 60.77C212.263 60.77 212.263 62.985 213.567 62.985Z" fill="#C6C6C6"/>
<path d="M225.21 64.1258C225.21 64.1929 225.21 64.2936 225.21 64.3607C225.21 65.7703 227.212 65.7703 227.212 64.3607C227.212 64.2936 227.212 64.1929 227.212 64.1258C227.212 62.6827 225.21 62.6827 225.21 64.1258Z" fill="#C6C6C6"/>
<path d="M235.247 70.4689C236.52 70.4689 236.52 68.2539 235.247 68.2539C233.973 68.2539 233.973 70.4689 235.247 70.4689Z" fill="#C6C6C6"/>
<path d="M245.404 83.7248C246.677 83.7248 246.677 81.5098 245.404 81.5098C244.13 81.5098 244.13 83.7248 245.404 83.7248Z" fill="#C6C6C6"/>
<path d="M256.26 104.465C257.533 104.465 257.533 102.25 256.26 102.25C254.986 102.284 254.956 104.465 256.26 104.465Z" fill="#C6C6C6"/>
<path d="M266.872 127.488C268.146 127.488 268.146 125.273 266.872 125.273C265.599 125.273 265.599 127.488 266.872 127.488Z" fill="#C6C6C6"/>
<path d="M266.872 127.488C268.146 127.488 268.146 125.273 266.872 125.273C265.599 125.273 265.599 127.488 266.872 127.488Z" fill="#C6C6C6"/>
<path d="M111.897 190.715C113.17 190.715 113.17 188.5 111.897 188.5C110.623 188.534 110.623 190.715 111.897 190.715Z" fill="#C6C6C6"/>
<path d="M91.5499 190.482C92.8234 190.482 92.8234 188.267 91.5499 188.267C90.2763 188.267 90.2763 190.482 91.5499 190.482Z" fill="#C6C6C6"/>
<path d="M200.225 164.371C201.498 164.371 201.498 162.156 200.225 162.156C198.921 162.189 198.921 164.371 200.225 164.371Z" fill="#C6C6C6"/>
<path d="M222.299 161.082C223.573 161.082 223.573 158.867 222.299 158.867C220.995 158.867 220.995 161.082 222.299 161.082Z" fill="#C6C6C6"/>
<path d="M250.074 156.686C251.347 156.686 251.347 154.471 250.074 154.471C248.8 154.471 248.8 156.686 250.074 156.686Z" fill="#C6C6C6"/>
<path d="M69.7484 203.368C71.0219 203.368 71.0219 201.153 69.7484 201.153C68.4445 201.153 68.4445 203.368 69.7484 203.368Z" fill="#C6C6C6"/>
<path d="M96.8267 14.9257C98.1003 14.9257 98.1003 12.7107 96.8267 12.7107C95.5532 12.7107 95.5532 14.9257 96.8267 14.9257Z" fill="#C6C6C6"/>
<path d="M144.917 12.9789C146.19 12.9789 146.19 10.7639 144.917 10.7639C143.613 10.7975 143.613 12.9789 144.917 12.9789Z" fill="#C6C6C6"/>
<path d="M160.594 29.9611C161.868 29.9611 161.868 27.7461 160.594 27.7461C159.29 27.7461 159.29 29.9611 160.594 29.9611Z" fill="#C6C6C6"/>
<path d="M187.065 26.1012C188.338 26.1012 188.338 23.8862 187.065 23.8862C185.791 23.8862 185.791 26.1012 187.065 26.1012Z" fill="#C6C6C6"/>
<path d="M180.789 53.486C182.062 53.486 182.062 51.271 180.789 51.271C179.515 51.271 179.515 53.486 180.789 53.486Z" fill="#C6C6C6"/>
<path d="M209.352 49.6276C210.626 49.6276 210.626 47.4126 209.352 47.4126C208.079 47.4126 208.079 49.6276 209.352 49.6276Z" fill="#C6C6C6"/>
<path d="M168.932 138.697C170.206 138.697 170.206 136.482 168.932 136.482C167.659 136.482 167.659 138.697 168.932 138.697Z" fill="#C6C6C6"/>
<path d="M153.953 160.277C155.226 160.277 155.226 158.062 153.953 158.062C152.679 158.095 152.679 160.277 153.953 160.277Z" fill="#C6C6C6"/>
<path d="M22.9615 159.136C24.235 159.136 24.235 156.921 22.9615 156.921C21.688 156.921 21.688 159.136 22.9615 159.136Z" fill="#C6C6C6"/>
<path d="M52.5865 169.943C53.86 169.943 53.86 167.728 52.5865 167.728C51.313 167.728 51.313 169.943 52.5865 169.943Z" fill="#C6C6C6"/>
<path d="M94.0362 170.312C95.3097 170.312 95.3097 168.097 94.0362 168.097C92.7627 168.097 92.7627 170.312 94.0362 170.312Z" fill="#C6C6C6"/>
<path d="M128.544 168.768C129.817 168.768 129.817 166.553 128.544 166.553C127.24 166.553 127.24 168.768 128.544 168.768Z" fill="#C6C6C6"/>
<path d="M204.47 92.8195C205.743 92.8195 205.743 90.6045 204.47 90.6045C203.196 90.6045 203.196 92.8195 204.47 92.8195Z" fill="#C6C6C6"/>
<path d="M223.997 82.7843C225.271 82.7843 225.271 80.5693 223.997 80.5693C222.724 80.5693 222.693 82.7843 223.997 82.7843Z" fill="#C6C6C6"/>
<path d="M240.705 107.855C241.978 107.855 241.978 105.64 240.705 105.64C239.431 105.64 239.431 107.855 240.705 107.855Z" fill="#C6C6C6"/>
<path d="M221.208 115.944C222.481 115.944 222.481 113.729 221.208 113.729C219.934 113.729 219.934 115.944 221.208 115.944Z" fill="#C6C6C6"/>
<path d="M199.619 135.24C200.892 135.24 200.892 133.025 199.619 133.025C198.315 133.025 198.315 135.24 199.619 135.24Z" fill="#C6C6C6"/>
<path d="M243.494 133.695C244.767 133.695 244.767 131.48 243.494 131.48C242.22 131.48 242.22 133.695 243.494 133.695Z" fill="#C6C6C6"/>
<path d="M221.207 144.872C222.481 144.872 222.481 142.657 221.207 142.657C219.934 142.657 219.934 144.872 221.207 144.872Z" fill="#C6C6C6"/>
<path d="M151.527 185.347C152.8 185.347 152.8 183.132 151.527 183.132C150.253 183.166 150.253 185.347 151.527 185.347Z" fill="#C6C6C6"/>
<path d="M170.327 179.171C171.601 179.171 171.601 176.956 170.327 176.956C169.054 176.99 169.054 179.171 170.327 179.171Z" fill="#C6C6C6"/>
<path d="M170.327 189.205C171.601 189.205 171.601 186.99 170.327 186.99C169.054 186.99 169.054 189.205 170.327 189.205Z" fill="#C6C6C6"/>
<path d="M196.828 178.4C198.102 178.4 198.102 176.185 196.828 176.185C195.525 176.218 195.525 178.4 196.828 178.4Z" fill="#C6C6C6"/>
<path d="M218.418 190.75C219.692 190.75 219.692 188.535 218.418 188.535C217.145 188.535 217.145 190.75 218.418 190.75Z" fill="#C6C6C6"/>
<path d="M241.402 170.715C242.675 170.715 242.675 168.5 241.402 168.5C240.128 168.5 240.128 170.715 241.402 170.715Z" fill="#C6C6C6"/>
<path d="M256.381 190.381C257.654 190.381 257.654 188.166 256.381 188.166C255.107 188.166 255.107 190.381 256.381 190.381Z" fill="#C6C6C6"/>
<path d="M273.453 162.995C274.726 162.995 274.726 160.78 273.453 160.78C272.179 160.78 272.179 162.995 273.453 162.995Z" fill="#C6C6C6"/>
<path d="M282.883 176.117C284.156 176.117 284.156 173.902 282.883 173.902C281.579 173.902 281.579 176.117 282.883 176.117Z" fill="#C6C6C6"/>
<path d="M289.493 191.153C290.766 191.153 290.766 188.938 289.493 188.938C288.219 188.938 288.219 191.153 289.493 191.153Z" fill="#C6C6C6"/>
<path d="M274.847 197.697C276.121 197.697 276.121 195.482 274.847 195.482C273.574 195.482 273.574 197.697 274.847 197.697Z" fill="#C6C6C6"/>
<path d="M181.455 163.096C182.729 163.096 182.729 160.881 181.455 160.881C180.182 160.881 180.182 163.096 181.455 163.096Z" fill="#C6C6C6"/>
<path d="M268.995 142.959C270.269 142.959 270.269 140.744 268.995 140.744C267.722 140.744 267.722 142.959 268.995 142.959Z" fill="#C6C6C6"/>
<path d="M46.6129 81.611C47.8864 81.611 47.8864 79.396 46.6129 79.396C45.3393 79.4296 45.3393 81.611 46.6129 81.611Z" fill="#C6C6C6"/>
<path d="M93.7032 59.7292C94.9767 59.7292 94.9767 57.5142 93.7032 57.5142C92.4297 57.5142 92.4297 59.7292 93.7032 59.7292Z" fill="#C6C6C6"/>
<path d="M92.7628 95.1691C94.0363 95.1691 94.0363 92.9541 92.7628 92.9541C91.4892 92.9541 91.4892 95.1691 92.7628 95.1691Z" fill="#C6C6C6"/>
<path d="M58.8638 128.528C60.1374 128.528 60.1374 126.313 58.8638 126.313C57.5903 126.347 57.5903 128.528 58.8638 128.528Z" fill="#C6C6C6"/>
<path d="M127.148 130.609C128.422 130.609 128.422 128.394 127.148 128.394C125.874 128.428 125.874 130.609 127.148 130.609Z" fill="#C6C6C6"/>
<path d="M134.699 81.611C135.972 81.611 135.972 79.396 134.699 79.396C133.425 79.4296 133.425 81.611 134.699 81.611Z" fill="#C6C6C6"/>
<path d="M240.612 210.65L208.986 206.924L184.122 200.984L151.132 192.862L111.895 189.775L70.9298 189.104L44.5193 189.775L23.4454 190.849L11.4985 190.614L5.07024 189.07L5.03991 189.037L1.64384 184.372V184.338L0.855469 177.492L0.885791 177.458L2.88705 172.592L6.22248 168.9L5.22185 160.577V160.544L6.61666 156.147L9.58823 151.113L7.79922 125.406L8.5876 95.7044L13.1662 74.3263L21.5351 55.3645L36.2716 34.6241L53.3733 20.7635L82.0276 7.77555L109.469 2.03668L141.095 1.80176L163.382 5.0907L184.85 11.0309L200.405 19.656L211.927 31.1002L238.338 55.4988L252.074 76.407L267.386 105.437L274.542 125.036L278.515 150.308L290.825 165.041L296.981 180.21L299.194 192.359V192.393L298.406 202.36L298.345 202.394L292.918 206.152L282.972 208.133L261.898 210.348L240.612 210.65ZM70.9298 188.802L111.925 189.473L151.223 192.527L184.243 200.682L209.077 206.622L240.673 210.348L261.928 210.113L282.972 207.898L292.857 205.918L298.133 202.226L298.921 192.426L296.738 180.344L290.583 165.208L278.242 150.475V150.442L274.27 125.137L267.114 105.605L251.831 76.6084L238.126 55.7337L211.715 31.3351L200.193 19.9245L184.698 11.3665L163.26 5.42631L141.034 2.13736L109.469 2.37229L82.058 8.0776L53.4643 21.032L36.4233 34.859L21.7171 55.5323L13.3785 74.427L8.83017 95.738L8.0418 125.406L9.8308 151.18L9.80048 151.214L6.82892 156.281L5.46442 160.577L6.46505 168.967L6.43473 169.034L3.06898 172.76L1.09805 177.525L1.88642 184.271L5.22185 188.802L11.5288 190.345L23.4151 190.547L44.4586 189.439L70.9298 188.802Z" fill="#C6C6C6"/>
<path d="M151.192 192.83L74.6898 180.278L50.8264 178.768L26.599 177.895L12.2263 176.754L7.2232 173.566L5.19162 189.507L0.794922 177.493L0.825244 177.425L6.37418 168.565L7.2232 173.23L12.3173 176.486L26.599 177.593L50.8264 178.466L74.6898 180.01L101.04 182.225L125.874 186.151L151.192 192.528V192.83ZM78.4194 180.614L147.766 191.991L125.813 186.453L101.009 182.527L78.4194 180.614ZM1.12846 177.526L5.10066 188.366L7.01095 173.331L6.28322 169.304L1.12846 177.526Z" fill="#C6C6C6"/>
<path d="M119.809 160.041L99.675 159.772L69.6258 156.785L46.1262 153.295L33.6638 151.281L25.022 145.475L17.3202 132.185L13.2571 115.17L12.8022 99.1281L16.1983 81.8444L22.5356 62.0436L34.7858 44.4914L56.9512 29.9596L84.0591 21.4688L115.958 20.2271H115.988L137.487 26.5029L153.557 37.3094L166.899 59.3587L171.417 85.8716V85.9052L169.143 111.713L157.408 132.454L143.127 148.999L132.029 156.517L119.809 160.041ZM33.7851 150.979L46.1869 152.959L69.6865 156.45L99.7356 159.437L119.809 159.671L131.968 156.181L143.005 148.697L157.226 132.219L168.931 111.512L171.174 85.8045L166.656 59.3587L153.345 37.4101L137.365 26.7378L115.928 20.4955L84.0894 21.7373L57.0422 30.2281L34.9374 44.6928L22.7782 62.1443L16.4712 81.8779L13.0751 99.1281L13.53 115.103L17.5931 132.051L25.2343 145.24L33.7851 150.979Z" fill="#C6C6C6"/>
<path d="M11.5892 191.353L7.10153 173.734L1.88613 184.406L1.64355 184.272L7.16217 172.928L7.25314 173.297L11.4073 189.608L12.1653 176.452L70.9295 188.802L70.8992 189.104L12.4079 176.821L11.5892 191.353Z" fill="#C6C6C6"/>
<path d="M23.4149 190.849H23.3543L19.1092 188.366L11.468 190.681L11.4074 190.648L1.58305 184.439L2.18949 178.465L0.643066 177.559L2.40175 176.385L2.79593 172.559L7.46553 173.297L2.64432 176.552L2.46239 178.297L19.0789 188.064L50.7655 178.499H50.7958L64.5014 182.123L74.6289 180.043H74.6593L105.8 187.963L125.782 186.184L125.813 186.486L111.804 189.809H111.773L105.77 188.265L91.4577 189.54H91.4274L64.471 182.425L23.4149 190.849ZM19.5034 188.231L23.4756 190.547L63.9556 182.224L50.8564 178.767L19.5034 188.231ZM1.91659 184.238L11.5287 190.312L18.7757 188.131L2.49271 178.566L1.91659 184.238ZM106.74 188.164L111.895 189.473L123.872 186.62L106.74 188.164ZM65.2291 182.258L91.579 189.205L105.012 187.996L74.7199 180.278L65.2291 182.258ZM1.24951 177.492L2.28046 178.096L2.43207 176.687L1.24951 177.492ZM3.06883 172.827L2.73529 176.15L6.7378 173.431L3.06883 172.827Z" fill="#C6C6C6"/>
<path d="M44.5201 189.742L44.4897 189.44L101.071 182.224L136.305 178.231L162.048 172.223L181.364 166.249L180.454 143.864L180.909 118.358L182.486 95.1008L186.336 80.804L191.582 69.729L199.769 63.4532L213.566 61.708H213.596L226.301 63.9566L235.367 69.2256L245.525 82.482L256.38 103.256L267.023 126.312L270.662 152.456L270.541 152.489L181.546 166.484L162.139 172.492L136.366 178.499L101.101 182.493L44.5201 189.742ZM191.734 69.9639L186.549 80.9382L182.728 95.168L181.151 118.392L180.696 143.898L181.606 166.216L270.329 152.255L266.751 126.413L256.138 103.424L245.313 82.6834L235.185 69.4605L226.18 64.2251L213.566 61.9765L199.83 63.7216L191.734 69.9639Z" fill="#C6C6C6"/>
<path d="M23.4761 191.017L23.3244 190.816L12.1659 176.687L5.22217 160.645L5.46474 160.511L12.4085 176.553L23.3548 190.413L26.4779 177.694L26.7205 177.761L23.4761 191.017Z" fill="#C6C6C6"/>
<path d="M162.744 113.593L162.835 113.325L166.504 101.276L162.835 85.6371V85.6035L164.17 76.475L155.619 64.9637L148.857 50.8011L142.52 47.7136L123.113 27.8792L98.5526 29.7586L92.7914 26.5704L71.9298 32.0072H71.8995L66.8964 31.4367L50.2799 40.7665L44.0638 42.3774L30.4492 55.0633L28.4176 59.7618L28.357 59.7954L21.9287 62.648L30.2066 54.9291L34.7246 44.5589L34.7853 44.5253L43.8819 42.1425L56.8901 29.9936H56.981L66.8357 31.1346L84.089 21.4692L84.1496 21.5027L92.7914 26.2683L115.988 20.1938L116.048 20.261L123.204 27.5772L137.516 26.4697L137.547 26.5704L149.039 50.5998L166.929 59.292L166.899 59.3927L164.412 76.3743L171.447 85.8384L171.417 85.9056L166.777 101.276L169.233 111.714L162.744 113.593ZM166.626 101.813L163.169 113.19L168.9 111.546L166.626 101.813ZM163.078 85.6035L166.626 100.773L171.144 85.9056L164.352 76.7771L163.078 85.6035ZM149.251 51.0025L155.861 64.7959L164.23 76.0723L166.656 59.4598L149.251 51.0025ZM29.9641 55.4996L23.3842 61.6412L28.2054 59.4933L29.9641 55.4996ZM34.9672 44.7267L30.7524 54.3921L43.4877 42.5117L34.9672 44.7267ZM142.702 47.4786L148.645 50.3649L137.335 26.7382L123.447 27.8121L142.702 47.4786ZM56.2836 30.9668L44.5187 41.9411L50.1586 40.4645L56.2836 30.9668ZM57.072 30.262L50.6437 40.196L66.4112 31.336L57.072 30.262ZM67.3512 31.1682L71.8995 31.7051L92.3972 26.369L84.1193 21.7712L67.3512 31.1682ZM93.1856 26.4697L98.6133 29.4566L122.871 27.5772L115.957 20.4959L93.1856 26.4697Z" fill="#C6C6C6"/>
<path d="M171.599 86.0398L162.836 85.7713L162.805 85.6706L153.375 37.6454L142.55 47.8814L142.49 47.6464L138.396 31.1682C128.936 26.8053 118.141 21.6034 115.958 20.5295L98.6135 29.7586L98.4922 29.4901L115.927 20.1938L115.988 20.2274C122.75 23.5164 131.179 27.5101 138.305 30.799L137.274 26.6375L137.547 26.5704L138.639 30.9332C146.371 34.5242 152.526 37.2091 153.345 37.2091C153.375 37.2091 153.375 37.2091 153.375 37.2091L153.527 37.0748L153.557 37.2091C154.436 37.7125 158.985 50.5998 165.292 68.7225C168.233 77.2134 171.053 85.2344 171.417 85.7378L171.599 86.0398ZM163.048 85.4693L171.053 85.7042C170.446 84.3618 168.294 78.2537 165.019 68.8568C160.774 56.6407 155.043 40.196 153.648 37.7796L163.048 85.4693ZM138.73 31.3024L142.702 47.3444L153.163 37.4776C151.556 37.1084 145.522 34.4571 138.73 31.3024Z" fill="#C6C6C6"/>
<path d="M71.9905 31.9737L71.8389 31.7388L84.0587 21.4692H84.1193L137.426 26.4698V26.7718L84.1496 21.7713L71.9905 31.9737Z" fill="#C6C6C6"/>
<path d="M12.1957 176.721L6.19189 168.968V168.901L9.58797 151.08L8.58734 95.6719V95.6383L21.5349 55.332L53.4034 20.7646L109.439 2.07129H109.469L163.351 5.15887L200.314 19.6906L200.223 19.9591L163.291 5.46091L109.499 2.37333L53.4943 21.033L21.7471 55.5334L8.86024 95.7054L9.86087 151.114L6.46479 168.901L12.4079 176.553L12.1957 176.721Z" fill="#C6C6C6"/>
<path d="M143.854 147.992L143.642 147.824L162.836 113.324L166.657 59.3584L166.929 59.392L163.079 113.458L143.854 147.992Z" fill="#C6C6C6"/>
<path d="M190.884 277.369H190.611L194.795 227.162L194.826 227.129L209.077 206.456L209.138 206.724L218.689 238.17L218.447 238.271L208.986 207.06L195.038 227.263L190.884 277.369Z" fill="#C6C6C6"/>
<path d="M58.2246 272.435L58.164 272.167L83.7861 264.75L38.1211 213.134L38.5456 213.234L68.1703 219.812L68.1096 220.114L38.9095 213.604L84.3016 264.918L84.059 264.985L58.2246 272.435Z" fill="#C6C6C6"/>
<path d="M152.83 299.519H152.8L119.446 296.801L118.445 297.573L116.777 296.599L98.948 295.156H98.8874L98.857 295.123L69.2627 284.786L69.2324 284.752L61.5306 273.879C59.5293 273.409 58.2255 272.939 58.0738 272.57C58.0435 272.469 58.0435 272.369 58.1042 272.268C58.2255 272.067 58.4984 271.328 58.8925 270.187L50.3417 258.139V258.105L45.4295 201.925L42.6096 201.891L40.8812 212.463L44.247 248.339L43.9741 248.406L38.2129 227.028V226.995L40.6083 212.463L39.5774 201.589L42.3973 201.623L44.3683 189.642L44.3379 189.407L44.3986 189.44L44.4289 189.272L44.5805 189.541L70.3846 202.361L52.1004 202.093L70.0814 232.096L70.0511 232.163C69.6872 233.539 61.9248 261.663 59.1654 270.12L61.6822 273.644C63.8654 274.147 67.413 274.818 73.2349 275.691C80.6638 276.799 88.1533 277.705 88.214 277.705H88.2746L88.305 277.772L98.9783 294.854L110.652 292.673L116.808 296.331L119.324 296.532L128.057 289.82L128.209 290.055L119.749 296.566L152.709 299.251L171.206 266.495L219.054 237.768L190.794 277.503L152.83 299.519ZM171.357 266.697L153.164 298.982L190.672 277.268L218.083 238.707L171.357 266.697ZM117.414 296.633L118.415 297.237L119.021 296.767L117.414 296.633ZM100.04 294.921L116.201 296.23L110.652 292.908L100.04 294.921ZM69.4143 284.484L98.6145 294.686L88.1533 277.94C85.6063 277.638 69.4749 275.658 61.9551 273.946L69.4143 284.484ZM59.0745 270.388C58.7106 271.462 58.468 272.167 58.3164 272.402C58.3164 272.536 58.65 272.872 61.288 273.51L59.0745 270.388ZM50.5843 257.971L58.9835 269.818C61.7428 261.294 69.3537 233.673 69.7782 232.096L51.7669 202.059L45.7024 201.958L50.5843 257.971ZM38.4555 226.995L43.7921 246.795L40.669 213.503L38.4555 226.995ZM39.8806 201.858L40.7903 211.422L42.367 201.925L39.8806 201.858ZM51.9185 201.757L69.0808 202.025L44.8534 189.977L51.9185 201.757ZM45.6721 201.656L51.5849 201.757L44.6715 190.212L45.6721 201.656ZM42.6399 201.589L45.3992 201.623L44.4289 190.648L42.6399 201.589Z" fill="#C6C6C6"/>
<path d="M69.4436 284.651L69.2011 284.584L79.268 249.211L50.4923 258.138L50.4014 257.87L79.6622 248.775L69.4436 284.651Z" fill="#C6C6C6"/>
<path d="M173.813 290.927L150.374 281.262L150.465 280.959L173.904 290.658L173.813 290.927Z" fill="#C6C6C6"/>
<path d="M134.697 300.022L134.637 299.921L110.652 292.907L82.2097 291.162L82.1794 291.128L44.0039 248.439L44.1858 248.238L82.3007 290.86L110.652 292.605L134.364 299.552L127.875 289.752H128.148L142.733 290.021L150.374 280.959L179.786 270.052L187.458 243.808L187.518 243.774L202.74 235.216L200.921 214.006L201.103 214.039L229.09 220.718L228.756 220.919L203.013 235.384L205.166 260.756L205.287 260.89L205.105 260.957L173.964 290.826L173.934 290.893H173.843L134.788 299.921L134.697 300.022ZM128.421 290.054L134.728 299.585L142.49 290.356L128.421 290.054ZM142.824 290.323L135.061 299.552L172.63 290.893L142.824 290.323ZM143.096 290.054L173.782 290.658L179.695 270.455L150.495 281.261L143.096 290.054ZM179.998 270.321L174.146 290.323L204.468 261.259L179.998 270.321ZM187.64 244.21L180.089 269.985L204.802 260.823L187.64 244.21ZM187.791 243.975L204.893 260.521L202.77 235.585L187.791 243.975ZM201.224 214.442L202.983 235.115L228.301 220.919L201.224 214.442Z" fill="#C6C6C6"/>
<path d="M190.854 277.469L190.642 277.268L228.514 220.886L208.956 206.891L209.108 206.656L228.878 220.819L228.817 220.92L190.854 277.469Z" fill="#C6C6C6"/>
<path d="M152.952 299.586L152.74 299.486L128.118 290.055L128.179 289.753L152.618 299.15L150.253 280.96H150.405L190.248 277.268L171.206 266.73L171.327 266.462L191.218 277.47L190.764 277.503L150.557 281.229L152.952 299.586Z" fill="#C6C6C6"/>
<path d="M118.384 297.539L58.1343 272.47L58.2252 272.201L118.415 297.271C120.992 296.935 170.72 290.66 173.752 290.66C173.783 290.66 173.783 290.66 173.783 290.66L218.326 238.271L194.857 227.364L194.947 227.096L218.781 238.171L218.659 238.339L173.904 290.962L173.813 290.928C173.783 290.928 173.752 290.928 173.692 290.928C171.357 290.928 136.759 295.224 118.415 297.539H118.384Z" fill="#C6C6C6"/>
<path d="M98.5139 287.106L82.2192 290.874L82.2748 291.168L98.5695 287.4L98.5139 287.106Z" fill="#C6C6C6"/>
<path d="M98.7959 294.988L98.4017 287.403L68.6558 284.719L69.2925 284.484L88.1529 277.671L88.2438 277.939L69.9899 284.551L98.6746 287.135L99.0688 294.955L98.7959 294.988Z" fill="#C6C6C6"/>
<path d="M82.3005 291.968L82.0882 291.029L75.9632 261.663L43.8521 248.407L44.0037 248.239L53.9494 236.493L36.8174 241.09L37.0296 240.755L47.2785 225.015L38.3638 227.129L38.3032 226.827L47.4908 224.646L70.5355 189.206L39.7586 201.791L39.6677 201.522L71.2633 188.602L47.8546 224.545L68.5039 219.679L54.7377 235.956L70.0201 231.861L70.0504 231.995L76.2058 261.395L84.1805 264.683V264.784L82.3005 291.968ZM76.2664 261.797L82.1792 290.055L83.9076 264.952L76.2664 261.797ZM44.3373 248.272L75.9025 261.327L69.8381 232.264L54.4345 236.392L44.3373 248.272ZM47.6424 224.948L37.4541 240.621L54.2829 236.123L67.7459 220.216L47.6424 224.948Z" fill="#C6C6C6"/>
<path d="M83.9084 264.885L69.8086 232.129L70.0512 231.995L84.1509 264.784L83.9084 264.885Z" fill="#C6C6C6"/>
<path d="M152.769 299.518L110.652 292.907L110.682 292.605L152.8 299.216L152.769 299.518Z" fill="#C6C6C6"/>
<path d="M204.529 92.0471L204.377 91.7787L191.43 69.7629L191.642 69.7293L212.079 66.3397L213.534 61.5405L215.748 65.7356L226.209 63.9905L226.239 64.2925L215.9 66.0041L224.026 81.442L235.154 69.2595L235.336 69.4608L223.965 81.9118L215.596 66.0377L212.261 66.5746L204.529 92.0471ZM191.885 69.9642L204.468 91.3424L211.988 66.6082L191.885 69.9642ZM213.595 62.2117L212.352 66.2726L215.445 65.7692L213.595 62.2117Z" fill="#C6C6C6"/>
<path d="M169.143 111.713L168.961 111.512L182.515 95.0336L199.678 63.5537L199.89 63.688L182.728 95.2014L169.143 111.713Z" fill="#C6C6C6"/>
<path d="M119.839 160.041H119.809L33.6941 151.281L33.6637 151.248L17.3808 132.219V132.185L12.8628 99.1616V99.128L22.5659 62.1106L22.8084 62.1777L13.1054 99.1616L17.6234 132.085L33.8153 151.013L119.809 159.772L143.005 148.798L168.931 111.613L166.687 59.4929C164.685 58.0162 139.215 28.8856 137.426 26.8384L120.355 34.2889L120.264 34.0204L137.517 26.4692L137.577 26.5364C147.281 37.6449 165.868 58.7546 166.899 59.258L166.99 59.2915V59.3922L169.264 111.713L169.234 111.747L143.126 148.999L119.839 160.041Z" fill="#C6C6C6"/>
<path d="M99.7051 159.772L25.0521 145.509L25.0218 145.442L13.2568 115.136V115.103L16.1981 81.7771L28.2056 59.4928L50.1588 40.4639L71.8694 31.7046L98.5528 29.4561L120.294 33.9867L142.702 47.5117L155.831 64.7954L163.078 85.603V113.391L157.408 132.42L157.378 132.454L132.059 156.483H132.028L99.7051 159.772ZM25.2341 145.24L99.7051 159.47L131.937 156.215L157.165 132.252L162.805 113.324V85.6365L155.589 64.9296L142.52 47.713L120.203 34.2217L98.5528 29.7581L71.9301 32.0067L50.2801 40.7324L28.4179 59.6942L16.471 81.8777L13.5297 115.069L25.2341 145.24Z" fill="#C6C6C6"/>
<path d="M52.4633 168.9L46.0653 153.261L25.1128 145.508L25.1734 145.24L69.6862 156.483L132.18 156.248L128.754 167.457L153.921 159.033L154.012 159.335L128.329 167.893L131.816 156.516L69.6559 156.785L27.7811 146.179L46.2473 153.026L46.2776 153.059L52.7059 168.766L52.4633 168.9Z" fill="#C6C6C6"/>
<path d="M22.8994 158.162L9.52734 151.181L9.58799 151.047L17.3504 132.052L17.593 132.186L9.89121 151.047L23.0207 157.893L22.8994 158.162Z" fill="#C6C6C6"/>
<path d="M110.652 292.907H110.621L98.4622 287.37L88.0921 277.906V277.872L83.9076 264.884L79.329 249.043L69.8079 232.095L67.9886 219.98V219.946L70.7782 189.037L50.7959 178.734L23.0209 158.228L12.4992 176.553L44.5496 189.473L44.4586 189.742L12.105 176.72L12.1959 176.553L22.93 157.826L23.0512 157.893L50.9172 178.499L71.0511 188.869V188.97L68.2615 219.946L70.0505 231.995L79.5716 248.909L84.1502 264.783L88.3347 277.704L98.6139 287.135L110.682 292.605L128.117 289.752L150.374 280.96L171.175 266.495L187.458 243.842L194.795 227.162L200.981 214.14L208.986 206.623H209.047L261.898 210.147L261.868 210.415L209.077 206.925L201.193 214.342L195.038 227.296L187.67 244.009L171.326 266.73L150.465 281.228L128.178 290.055L110.652 292.907Z" fill="#C6C6C6"/>
<path d="M74.8716 180.412L74.629 180.278L52.5242 168.968L23.1421 158.262L26.7201 177.727L26.4776 177.761L22.8086 157.792L23.0208 157.859L52.5849 168.632C53.7674 167.726 68.2007 156.618 69.6562 156.45H69.7775L69.8078 156.584L74.8716 180.412ZM52.8578 168.8L74.5077 179.875L69.5652 156.785C67.9885 157.322 58.1338 164.706 52.8578 168.8Z" fill="#C6C6C6"/>
<path d="M93.0952 169.404L94.0049 169.068L119.839 159.705L128.906 167.793H128.542L93.0952 169.404ZM119.779 160.041L95.0055 169.035L128.178 167.558L119.779 160.041Z" fill="#C6C6C6"/>
<path d="M111.834 189.742L101.07 182.56L91.5793 189.54L91.5186 189.507L74.417 180.177L74.6596 180.043L94.1263 169.035L101.131 182.224L128.603 167.524L128.663 167.625L136.335 178.197L154.012 159L154.103 159.134L162.078 172.156L180.484 143.864L186.366 80.8373L186.396 80.8038L199.768 63.4865L226.3 63.9899L226.331 64.0235L245.433 82.4482L251.68 76.6087L235.063 69.4603L235.094 69.326L238.096 55.6333L238.368 55.7004L235.397 69.2925L252.195 76.5416L252.013 76.7094L245.373 82.851L245.282 82.7838L226.118 64.3255L199.799 63.8221L186.548 80.9716L180.666 143.965L180.635 143.998L161.987 172.659L153.891 159.436L136.244 178.633L128.451 167.894L101.282 182.425L111.925 189.54L111.834 189.742ZM74.9931 180.143L91.549 189.171L100.888 182.325L94.005 169.404L74.9931 180.143Z" fill="#C6C6C6"/>
<path d="M169.082 137.589H168.809C168.809 136.515 179.664 120.138 180.908 118.292L181.12 118.46C176.299 125.709 169.112 136.817 169.082 137.589Z" fill="#C6C6C6"/>
<path d="M199.436 134.468L199.466 134.098L204.317 91.8791L182.576 95.2687L182.546 95.2351L171.024 85.8046L171.266 85.7039L186.276 80.737C185.396 79.0925 174.238 67.2456 166.718 59.426L166.566 59.2581L166.748 59.1575L180.909 52.0762L180.939 52.244L186.609 80.8712L186.488 80.9048L171.6 85.8046L182.637 94.8324L204.439 91.4428L223.875 81.4753V81.4082H223.966L224.027 81.3746L224.057 81.4082L245.555 82.3479L245.525 82.5157L240.765 106.948L240.643 106.78L221.237 114.835L199.436 134.468ZM204.56 92.0804L199.769 133.763L220.964 114.835C219.054 113.123 206.804 95.3358 204.56 92.0804ZM224.087 82.0794L221.358 114.633L240.492 106.679L224.087 82.0794ZM204.681 91.7784C210.685 100.538 219.66 113.324 221.086 114.6L223.845 81.9116L204.681 91.7784ZM224.269 81.8445L240.643 106.411L245.252 82.7841L224.269 81.8445ZM167.021 59.426C169.356 61.8759 183.547 76.609 186.154 80.1664L180.666 52.6131L167.021 59.426Z" fill="#C6C6C6"/>
<path d="M84.1807 21.7375L84.0595 21.469L96.5218 13.8507L81.9976 8.0783L82.0885 7.80981L97.1586 13.7836L84.1807 21.7375Z" fill="#C6C6C6"/>
<path d="M116.201 20.5967L115.928 20.4961L96.5522 13.8846L109.53 2.00415L109.591 2.20551L116.201 20.5967ZM97.098 13.7504L115.746 20.1269L109.409 2.474L97.098 13.7504Z" fill="#C6C6C6"/>
<path d="M115.231 20.7306L115.898 20.2271L141.126 1.7688L145.098 11.9712L144.947 12.0384L115.231 20.7306ZM141.005 2.20509L116.717 19.9587L144.734 11.7699L141.005 2.20509Z" fill="#C6C6C6"/>
<path d="M160.684 29.1544L144.644 11.8371L144.856 11.77L163.474 5.125L163.443 5.32636L160.684 29.1544ZM145.159 11.9378L160.502 28.5168L163.17 5.49417L145.159 11.9378Z" fill="#C6C6C6"/>
<path d="M153.558 37.4776L153.376 37.2762L160.289 28.9868L137.214 26.7382L137.305 26.5368L144.795 11.8037L145.037 11.9715L137.639 26.4697L160.866 28.7183L160.684 28.9532L153.558 37.4776Z" fill="#C6C6C6"/>
<path d="M266.902 126.513L266.841 126.245L274.209 125.037L251.831 76.6424L211.715 31.3691L184.971 11.5683L187.215 25.1268H187.094L160.592 28.9863L160.562 28.7178L186.912 24.8583L184.607 10.9307L211.897 31.1342L252.074 76.5081L274.603 125.272L266.902 126.513Z" fill="#C6C6C6"/>
<path d="M155.619 65.0975L155.589 64.8961L153.345 37.5107L120.173 34.2553L115.897 20.529L70.8387 27.9794L34.6948 44.8604L34.7251 44.592L36.2109 34.658L36.3019 34.6245L56.7996 29.9931L53.2823 20.9653L53.5248 20.8646L57.0422 29.8924L82.1186 7.67527L82.1489 7.91019L84.2411 21.7036L84.1501 21.7372L71.809 27.5096L116.049 20.1934L116.079 20.2941L120.355 33.9532L153.588 37.2086V37.3429L155.832 64.6612L166.626 59.2915L160.319 28.3822L160.653 28.7849L180.696 52.1095L186.881 25.0932L163.2 5.46027L163.351 5.22534L186.942 24.7912V24.7576L187.094 24.8919L211.927 31.1677L211.897 31.302L209.411 48.8542L209.229 48.6528L187.094 25.2946L180.817 52.6801L160.774 29.3554L166.899 59.4593L166.808 59.4929L155.619 65.0975ZM187.518 25.261L209.289 48.2165L211.685 31.3691L187.518 25.261ZM36.4535 34.8929L35.0284 44.357L69.7775 28.1137L57.0725 30.228L56.9512 30.3287L56.9209 30.2616L36.4535 34.8929ZM81.9669 8.21224L57.497 29.8924L70.7781 27.711L83.9682 21.5358L81.9669 8.21224Z" fill="#C6C6C6"/>
<path d="M200.314 63.789H199.768C199.708 63.789 199.647 63.7554 199.617 63.7218L180.362 52.3112L209.653 48.3511L209.441 48.6196C205.681 53.8886 199.829 62.5137 199.799 63.4869L200.314 63.789ZM181.211 52.479L199.586 63.3527C200.102 61.4397 206.621 52.1099 209.047 48.7202L181.211 52.479Z" fill="#C6C6C6"/>
<path d="M226.208 64.2913L226.148 64.2241L209.653 48.9541L213.685 61.8078L213.443 61.9085L209.167 48.3164L209.41 48.3835L238.61 55.5991L226.208 64.2913ZM209.865 48.7863L226.208 63.9221L237.882 55.7333L209.865 48.7863Z" fill="#C6C6C6"/>
<path d="M169.082 137.824L157.256 132.522L157.347 132.253L168.809 137.388L168.93 111.412L169.112 111.513L180.908 118.158C181.271 114.869 186.093 82.2814 186.305 80.8718V80.8047L186.366 80.7712L213.655 61.6416L213.686 61.8765C213.777 63.2861 226.664 67.0449 235.275 69.2599H235.336L235.366 69.327L266.749 125.91L267.113 105.74L256.137 103.525V103.425L251.831 76.6096L252.104 76.5761L256.379 103.29L267.386 105.505V105.64L266.992 126.917L266.749 126.481L235.154 69.4948C232.789 68.8907 214.777 64.2258 213.504 62.0779L186.578 80.939C186.335 82.6841 181.271 116.916 181.18 118.359L181.15 118.594L169.203 111.848L169.082 137.824Z" fill="#C6C6C6"/>
<path d="M278.272 150.543L266.81 126.548L243.28 132.79L243.401 132.555L240.612 106.613L256.531 103.156L256.41 103.424L243.765 132.354L266.962 126.178L267.022 126.279L278.545 150.376L278.272 150.543ZM240.854 106.881L243.583 132.085L256.015 103.592L240.854 106.881Z" fill="#C6C6C6"/>
<path d="M199.981 134.602L199.526 134.233L180.938 118.493L181.12 118.258L199.253 133.629L182.485 95.2021L182.727 95.0679L199.981 134.602Z" fill="#C6C6C6"/>
<path d="M221.084 143.998V114.565L221.297 114.733L243.765 132.621L221.084 143.998ZM221.327 115.136V143.528L243.22 132.554L221.327 115.136Z" fill="#C6C6C6"/>
<path d="M200.436 163.598L200.193 163.397L180.484 143.999L180.666 143.764L200.133 162.927L199.465 134.132H199.738L200.436 163.598Z" fill="#C6C6C6"/>
<path d="M201.103 214.376L201.073 214.074L239.612 210.416L151.071 192.763V192.629L151.405 184.339L125.419 186.42L125.813 186.118L136.305 178.164L136.365 178.198L151.526 184.037C152.739 182.594 160.744 172.929 161.987 172.224L168.749 138.16L154.043 159.336L153.922 159.236L142.854 148.765L143.066 148.664L168.901 137.388L168.931 137.321L168.961 137.354L169.143 137.287L169.113 137.455L180.605 143.664L199.617 133.897L199.678 133.931L221.267 143.563L249.891 155.276L243.281 132.152L243.584 132.387L270.571 152.188L270.419 152.423L243.736 132.857L250.285 155.745L250.043 155.645L221.358 143.966L222.45 160.108H222.328L202.862 161.082L200.345 163.431H200.284L181.303 162.156V161.853L202.74 160.813L220.964 143.831L199.617 134.3L180.575 144.066L180.514 144.033L169.022 137.824L162.139 172.526L162.048 172.559C161.442 172.694 155.498 179.674 151.617 184.339L151.284 192.595L241.583 210.584L240.582 210.684L201.103 214.376ZM136.305 178.533L126.359 186.118L150.889 184.138L136.305 178.533ZM183.819 162.021L200.223 163.129L202.376 161.115L183.819 162.021ZM221.085 144.066L203.165 160.78L222.146 159.84L221.085 144.066ZM143.339 148.933L153.952 158.967L168.567 137.925L143.339 148.933Z" fill="#C6C6C6"/>
<path d="M181.605 166.384H181.333L182.485 95.0673L186.063 85.0326L186.305 80.8711L186.578 80.9047L186.396 84.1601L191.551 69.7626L191.612 69.729L213.565 61.708H213.595L235.336 69.2256L235.366 69.2591L256.38 103.29L270.57 152.187L279.424 150.308L279.485 150.61L270.388 152.557L270.358 152.422L256.137 103.424L235.154 69.4941L213.565 62.01L191.763 69.9639L186.366 85.0662L181.605 166.384ZM182.727 95.1344L181.696 160.074L186.002 85.9723L182.727 95.1344Z" fill="#C6C6C6"/>
<path d="M191.642 70.031V69.729L235.245 69.2256V69.5276L191.642 70.031Z" fill="#C6C6C6"/>
<path d="M245.343 82.7511L213.504 62.0107L213.626 61.7422L245.464 82.4827L245.343 82.7511Z" fill="#C6C6C6"/>
<path d="M116.042 20.2293L115.886 20.4775L166.72 59.4881L166.876 59.2399L116.042 20.2293Z" fill="#C6C6C6"/>
<path d="M153.436 37.5112L84.0898 21.7713L84.1505 21.4692L153.497 37.2092L153.436 37.5112Z" fill="#C6C6C6"/>
<path d="M137.533 26.5269L137.303 26.6885L171.195 85.9582L171.425 85.7967L137.533 26.5269Z" fill="#C6C6C6"/>
<path d="M23.4757 190.849L23.3848 190.581L50.7353 178.499L52.4333 168.901L33.6639 151.248L33.8156 151.013L52.7365 168.766L52.7062 168.867L50.9778 178.734H50.8869L23.4757 190.849Z" fill="#C6C6C6"/>
<path d="M1.00935 177.365L0.942871 177.658L44.4688 189.758L44.5352 189.465L1.00935 177.365Z" fill="#C6C6C6"/>
<path d="M241.401 169.741H241.371L221.934 159.975L222.237 159.841L268.964 141.718L269.055 141.986L222.631 160.008L241.431 169.439L273.421 161.753L273.482 162.022L241.401 169.741Z" fill="#C6C6C6"/>
<path d="M290.673 165.343L273.451 162.021L250.072 155.745L181.302 162.155V161.853L270.479 152.221L270.509 152.523L201.436 159.974L250.072 155.443H250.103L273.481 161.752L290.734 165.041L290.673 165.343Z" fill="#C6C6C6"/>
<path d="M184.304 200.886L184.061 200.751L196.584 177.46L170.356 178.232L170.325 177.93L197.039 177.158L196.918 177.393L184.304 200.886Z" fill="#C6C6C6"/>
<path d="M151.223 192.83L151.162 192.528L169.658 188.098L150.95 184.272L151.496 184.104L170.265 177.929L181.454 166.183L181.545 166.25L197.1 177.325L196.857 177.425L170.841 188.031L171.023 188.064L170.386 188.232L151.223 192.83ZM152.102 184.205L170.326 187.93L196.524 177.258L181.514 166.552L170.386 178.197L152.102 184.205Z" fill="#C6C6C6"/>
<path d="M209.017 207.093L208.926 206.824L196.737 177.425L196.676 177.392V177.324L196.615 177.19L196.706 177.157L200.193 163.095L200.315 163.128L241.431 169.438L241.916 169.337L218.538 189.708L209.017 207.093ZM197.1 177.626L209.047 206.455L218.235 189.708L197.1 177.626ZM197.252 177.392L218.417 189.473L240.946 169.84L197.252 177.392ZM200.375 163.43L196.979 177.123L240.491 169.605L200.375 163.43Z" fill="#C6C6C6"/>
<path d="M240.643 210.717L240.552 210.616L218.083 189.507H218.447L256.713 189.104L256.531 189.339L240.643 210.717ZM218.78 189.809L240.612 210.314L256.107 189.44L218.78 189.809Z" fill="#C6C6C6"/>
<path d="M261.747 210.314L256.167 189.003L256.41 189.104L274.906 196.453L274.937 196.487L282.972 207.898L298.103 202.259L296.708 180.411L278.242 150.475L267.114 105.638L238.126 55.7673L184.729 11.3665L141.065 2.13736L82.0883 8.0776L36.4233 34.8925L13.4392 74.3598L16.5017 81.8774L16.4714 81.9445L8.92118 95.6708L13.136 99.0605L13.1056 99.1611L8.2541 124.533L13.4392 114.834L13.5605 115.035L33.9672 151.18L33.8459 151.247L22.93 158.261L17.4114 132.218L7.82959 125.439L7.85991 125.338L12.8631 99.1611L8.58764 95.7044L8.64829 95.6037L16.2288 81.8439L13.1663 74.3263L13.1966 74.2592L36.2717 34.6241L36.302 34.5905L82.058 7.74199L141.095 1.80176H141.125L184.91 11.0645L238.338 55.5994L267.356 105.571L278.484 150.408L296.981 180.344V180.378L298.376 202.494L298.285 202.528L282.881 208.267L282.82 208.2L274.755 196.755L256.562 189.54L261.989 210.28L261.747 210.314ZM8.10249 125.338L17.5933 132.051V132.118L23.0513 157.825L33.5427 151.113L13.4089 115.404L8.10249 125.338Z" fill="#C6C6C6"/>
<path d="M283.063 208.134L282.82 208.033L289.461 189.743L289.582 189.944L298.345 202.261L298.133 202.462L289.522 190.313L283.063 208.134Z" fill="#C6C6C6"/>
<path d="M134.696 299.956L118.383 297.539L98.9163 295.123L82.2089 291.163L69.231 284.753L58.1028 272.436L50.3404 258.106L43.9727 248.44L36.9986 240.923V240.855L38.1812 226.995L38.3935 213.369L39.6063 201.657L44.3366 189.675L37.3625 185.044L0.703125 184.474L26.6285 177.594L26.6891 177.627L37.4535 184.776L125.903 186.185V186.487L37.9083 185.078L44.6701 189.575L44.6095 189.709L39.8489 201.791L38.6664 213.436L38.4541 227.062L37.2715 240.855L44.185 248.272L50.5526 257.971L58.3151 272.268L69.4129 284.551L82.2998 290.928L98.977 294.888L118.444 297.304L134.727 299.721L152.768 299.285L173.782 290.727L190.671 277.336L204.953 260.858L218.446 238.238L228.604 220.82L240.551 210.45H240.581L292.765 206.053L298.86 192.528L295.676 182.158L289.4 190.38L289.309 190.179L282.698 175.144L273.238 161.988L273.268 161.921L278.18 150.51L278.423 150.644L273.541 161.988L282.789 174.875L290.673 165.008L295.161 179.708L297.01 180.413L295.858 181.923L299.133 192.595L292.917 206.355H292.856L240.672 210.651L228.786 220.954L218.658 238.305L205.135 260.958L190.823 277.47L173.872 290.928L152.768 299.519L134.696 299.956ZM283.123 175.244L289.521 189.743L295.616 181.722L295.039 179.775L283.123 175.244ZM2.82567 184.205L36.9077 184.742L26.5982 177.896L2.82567 184.205ZM295.343 179.943L295.828 181.487L296.616 180.446L295.343 179.943ZM283.093 174.942L294.918 179.473L290.643 165.478L283.093 174.942Z" fill="#C6C6C6"/>
<path d="M274.725 196.822V196.587L273.36 162.322L256.41 189.506L256.289 189.372L241.249 169.605L241.31 169.504L249.951 155.509L250.194 155.677L241.583 169.605L256.38 189.036L273.572 161.45L273.603 161.886L274.998 196.386L289.431 189.909L289.552 190.177L274.725 196.822Z" fill="#C6C6C6"/>
<path d="M274.968 196.656L274.725 196.521L282.76 174.942L283.003 175.043L274.968 196.656Z" fill="#C6C6C6"/>
<path d="M46.5817 80.7037L46.5211 80.603L28.2065 59.7283L28.4188 59.5269L46.6424 80.3345L93.6112 58.5201L98.4325 29.5908L98.7054 29.6244L93.8235 58.7214L93.7629 58.755L46.5817 80.7037Z" fill="#C6C6C6"/>
<path d="M127.117 129.702L59.014 127.587V127.655L58.8018 127.587H58.4682L58.5289 127.52L13.1367 115.204L13.3187 115.002L46.491 80.4348L50.1296 40.397L50.2813 40.4641L93.8541 58.5197V58.6204L92.9141 93.8591L134.637 80.3677L155.65 64.7284L155.802 64.9634L134.91 80.5019L163.201 113.391L127.299 129.601V129.635H127.208L127.117 129.702ZM59.1959 127.285L126.814 129.366L92.7625 94.2618L59.1959 127.285ZM134.789 80.8375L127.33 129.299L162.716 113.324L134.789 80.8375ZM93.0354 94.1275L127.057 129.232L134.516 80.7369L93.0354 94.1275ZM13.6825 115.036L58.6805 127.218L46.5516 80.7704L13.6825 115.036ZM46.7942 80.7369L58.923 127.185L92.4896 94.1611L46.7942 80.7369ZM46.7639 80.4012L92.6412 93.8591L93.5812 58.6875L50.3419 40.8333L46.7639 80.4012Z" fill="#C6C6C6"/>
<path d="M94.0964 169.404L93.9751 169.337L69.5659 156.752L69.5356 156.685L58.8015 127.688L33.8162 151.248L33.6646 151.013L58.9228 127.185L58.9835 127.386L69.7478 156.517L94.0055 169.035L99.5847 159.538L127.238 129.232L127.299 129.501L132.12 156.249L153.983 159.034L153.952 159.336L131.908 156.517L131.878 156.416L127.087 129.803L99.797 159.739L94.0964 169.404Z" fill="#C6C6C6"/>
<path d="M99.6143 159.738L58.7705 127.554L58.9524 127.319L99.766 159.503L99.6143 159.738Z" fill="#C6C6C6"/>
<path d="M134.788 80.737L134.637 80.6699L93.3076 58.587L93.7018 58.4863L142.824 47.4448L142.763 47.6797L134.788 80.737ZM94.1263 58.6876L134.606 80.3007L142.429 47.814L94.1263 58.6876Z" fill="#C6C6C6"/>
<path d="M136.334 178.532L136.243 178.23L181.271 161.853L181.362 162.121L162.108 172.525L161.987 172.256L179.482 162.826L136.334 178.532Z" fill="#C6C6C6"/>
<path d="M261.898 210.448L261.868 210.415L184.122 200.951H184.092L170.204 188.164V178.163L162.017 172.525L101.07 182.526L101.04 182.224L181.272 161.853L181.332 162.155L104.375 181.687L162.078 172.223L162.108 172.256L170.477 177.995V188.03L184.243 200.682L261.868 210.146L298.224 202.226L298.285 202.494L261.898 210.448Z" fill="#C6C6C6"/>
<path d="M74.7203 180.311L74.6899 180.009L181.454 166.25L181.484 166.518L74.7203 180.311Z" fill="#C6C6C6"/>
</g>
</svg>
